<?xml version="1.0" encoding="UTF-8"?>
<svg xmlns="http://www.w3.org/2000/svg" id="Logo_Bretagne_Plaisance_Blanc_RVB_sans_cartouche" width="116.149" height="50" viewBox="0 0 116.149 50">
  <g id="Groupe_1029" data-name="Groupe 1029">
    <g id="Groupe_1024" data-name="Groupe 1024">
      <path id="Tracé_582" data-name="Tracé 582" d="M90.2,0a65.022,65.022,0,0,1,11.983,17.015H93.3A36.736,36.736,0,0,0,90.2,0Z" transform="translate(-73.873)" fill="#fff"></path>
      <path id="Tracé_583" data-name="Tracé 583" d="M15.766,174.8H27.5a19.772,19.772,0,0,1-1.593,2.751,24.534,24.534,0,0,1-10.064,8.218,3.364,3.364,0,0,0-1.484,1.358.018.018,0,0,1-.018.018A93.574,93.574,0,0,0,0,193.824C7.982,187.507,12.87,180.972,15.766,174.8Z" transform="translate(0 -143.824)" fill="#fff"></path>
      <path id="Tracé_584" data-name="Tracé 584" d="M106.163,142.5a26.609,26.609,0,0,1-.706,2.932H93.8c.362-1,.688-1.955.959-2.932Z" transform="translate(-76.821 -117.065)" fill="#fff"></path>
      <path id="Tracé_585" data-name="Tracé 585" d="M114.105,113.032H103.1c.2-1,.362-1.973.471-2.932H114c.036.109.09.235.127.344A20.651,20.651,0,0,1,114.105,113.032Z" transform="translate(-84.438 -90.448)" fill="#fff"></path>
    </g>
    <rect id="Rectangle_152" data-name="Rectangle 152" width="74.72" height="0.923" transform="translate(41.429 30.164)" fill="#fff"></rect>
    <g id="Groupe_1026" data-name="Groupe 1026" transform="translate(36.179 2.969)">
      <g id="Groupe_1025" data-name="Groupe 1025">
        <path id="Tracé_586" data-name="Tracé 586" d="M216.346,24.339a2.873,2.873,0,0,1-.959,2.281,3.968,3.968,0,0,1-2.661.833,4.2,4.2,0,0,1-3.1-1.032c-.109-.109-.416-.145-.941-.145a.34.34,0,0,1-.235-.054.291.291,0,0,1-.054-.2V17.207c0-.235.036-.362.09-.362a.478.478,0,0,1,.127.018.507.507,0,0,0,.109.018c.054,0,.253-.018.615-.036s.8-.054,1.3-.091.977-.054,1.412-.054c2.588,0,3.892.905,3.892,2.715a1.977,1.977,0,0,1-.977,1.882.279.279,0,0,1-.127.054.651.651,0,0,0-.163.091c-.036.018-.072.054-.127.091a.108.108,0,0,0-.054.109c0,.036.018.054.036.091a.278.278,0,0,0,.109.072c.054.018.091.054.127.054a.882.882,0,0,0,.127.054.3.3,0,0,1,.109.054A2.334,2.334,0,0,1,216.346,24.339Zm-3.1-4.579c0-.742-.4-1.1-1.213-1.1a6.209,6.209,0,0,0-.905.054c-.109.018-.145.109-.145.29v1.72c0,.145.072.217.2.217h.923A1.027,1.027,0,0,0,213.251,19.759Zm.272,4.4a1.243,1.243,0,0,0-.362-1.032,1.837,1.837,0,0,0-1.1-.272h-.615c-.036,0-.09-.018-.2-.036a1.194,1.194,0,0,1-.181-.054c-.054,0-.072.091-.072.29v1.122a1.434,1.434,0,0,0,.271.977,1.309,1.309,0,0,0,1,.29,1.4,1.4,0,0,0,.977-.29A1.365,1.365,0,0,0,213.523,24.158Z" transform="translate(-208.4 -16.646)" fill="#fff"></path>
        <path id="Tracé_587" data-name="Tracé 587" d="M272.634,27.19a.144.144,0,0,1-.163.163l-1.213-.054q-1.222.054-1.52.054c-.109,0-.163-.072-.217-.2-.072-.2-.145-.416-.235-.67s-.145-.453-.2-.6-.109-.326-.181-.507a4.629,4.629,0,0,0-.181-.453c-.054-.109-.09-.217-.163-.362a1.582,1.582,0,0,0-.163-.308,2.648,2.648,0,0,1-.163-.235,1.7,1.7,0,0,0-.181-.181,1.106,1.106,0,0,0-.217-.091,3.962,3.962,0,0,0-.905-.235c-.109,0-.163.109-.163.308V27.1c0,.181-.072.253-.2.253l-1.249-.054q-1.032.054-1.195.054c-.072,0-.127-.018-.127-.072a.416.416,0,0,1,.054-.163.689.689,0,0,0,.054-.29V17.289q0-.244.163-.272a22.624,22.624,0,0,1,3.457-.217,4.671,4.671,0,0,1,2.969.833,2.9,2.9,0,0,1,1.068,2.444,2.923,2.923,0,0,1-.453,1.647,2.546,2.546,0,0,1-1.249,1.014c-.09.036-.145.072-.145.145s.072.145.235.217a1.8,1.8,0,0,1,.416.235,2.213,2.213,0,0,1,.29.253,1.571,1.571,0,0,1,.235.344c.09.163.145.272.181.344s.09.217.163.416.127.344.163.416a1.674,1.674,0,0,0,.272.507.522.522,0,0,0,.344.109h.29a.129.129,0,0,1,.127.145l-.054.634C272.616,26.882,272.634,27.117,272.634,27.19Zm-3.53-7a1.254,1.254,0,0,0-1.43-1.412,6.386,6.386,0,0,0-.778.036c-.127.036-.181.145-.181.326,0,.054.018.181.036.38s.036.362.036.471V21.2a1.29,1.29,0,0,0,.036.344c.018.054.109.109.235.127a3.306,3.306,0,0,0,.634.054C268.616,21.742,269.1,21.217,269.1,20.185Z" transform="translate(-253.936 -16.728)" fill="#fff"></path>
        <path id="Tracé_588" data-name="Tracé 588" d="M329.12,27.636c0,.127-.072.181-.2.181-.091,0-.434,0-1.05-.018s-1.05-.018-1.3-.018h-4.652a1.484,1.484,0,0,1-.344-.018c-.054-.018-.072-.036-.072-.109a2.108,2.108,0,0,1,.054-.29,2.287,2.287,0,0,0,.054-.507V18.024a.8.8,0,0,1,.163-.561.73.73,0,0,1,.525-.163h5.937c.127,0,.181.054.181.163l-.054.959c.036.6.036.941.036,1.032a.234.234,0,0,1-.036.145c-.018.018-.072.018-.145.018a5.17,5.17,0,0,1-.579-.054,5.48,5.48,0,0,0-.742-.036h-2.263c-.272,0-.4.036-.4.127a.51.51,0,0,0,.018.145.558.558,0,0,1,.018.163v1.05a.327.327,0,0,0,.072.253.444.444,0,0,0,.271.072h2.353c.163,0,.235.072.235.235l-.054.869c.036.489.054.778.054.887,0,.127-.072.2-.235.2h-2.3a.466.466,0,0,0-.326.091c-.054.054-.036.163-.036.326V25.1q0,.3.109.38a.878.878,0,0,0,.471.091h1.955c.072,0,.127,0,.145-.018a.214.214,0,0,0,.091-.091.484.484,0,0,0,.036-.2l.036-.416c.018-.145.054-.235.145-.235l.851.054c.507-.036.778-.054.851-.054.109,0,.145.072.145.217l-.036,1.285C329.12,26.966,329.12,27.473,329.12,27.636Z" transform="translate(-301.028 -17.137)" fill="#fff"></path>
        <path id="Tracé_589" data-name="Tracé 589" d="M380.155,18.908a.145.145,0,0,1-.181.181c-.036,0-.145,0-.362-.018s-.416-.018-.6-.018h-1.1a.674.674,0,0,0-.4.091.445.445,0,0,0-.09.308v6.227c0,.2.018.471.054.833s.054.579.054.652c0,.091-.054.145-.163.145l-1.231-.054q-1.086.054-1.249.054c-.145,0-.217-.054-.217-.145,0-.036.018-.109.036-.235a2.972,2.972,0,0,0,.036-.416V19.56a.709.709,0,0,1,.054-.235.657.657,0,0,0,.054-.2c0-.054-.054-.091-.181-.091h-1.81a2.96,2.96,0,0,0-.4.036c-.127.018-.217.054-.235.054-.072,0-.109-.054-.109-.145l.036-1.1q-.054-.706-.054-.815a.262.262,0,0,1,.054-.2.34.34,0,0,1,.235-.054h6.679a3.849,3.849,0,0,0,.543-.054,4.274,4.274,0,0,1,.434-.054c.072,0,.109.036.109.091l-.054.887C380.137,18.42,380.155,18.818,380.155,18.908Z" transform="translate(-342.469 -16.646)" fill="#fff"></path>
        <path id="Tracé_590" data-name="Tracé 590" d="M432.557,27.809c0,.145-.072.217-.2.217H431c-.525.054-.851.072-1,.072a.306.306,0,0,1-.163-.036c-.036-.018-.054-.091-.054-.181a1.853,1.853,0,0,0-.127-.615l-.4-1.539c0-.018-.018-.072-.036-.163s-.036-.163-.054-.235a.566.566,0,0,0-.091-.181.251.251,0,0,0-.181-.091,1.359,1.359,0,0,0-.362.127,1.839,1.839,0,0,1-.416.127h-1.394a.669.669,0,0,0-.38.072.589.589,0,0,0-.181.326l-.38,1.5a1.923,1.923,0,0,0-.072.344q-.027.163-.054.272c-.018.072-.018.109-.036.163a.185.185,0,0,1-.091.109.341.341,0,0,1-.145.036l-1.032-.072H423.2a.181.181,0,0,1-.2-.2,3.8,3.8,0,0,1,.145-.833l2.425-8.4c.036-.127.054-.253.091-.4s.054-.253.072-.308a.559.559,0,0,1,.09-.181.261.261,0,0,1,.2-.127,2.2,2.2,0,0,1,.38-.018l1.213.054c.941-.036,1.448-.054,1.5-.054a.81.81,0,0,1,.489.109,1.61,1.61,0,0,1,.253.579l2.444,8.489A3.362,3.362,0,0,1,432.557,27.809Zm-3.946-4.67a.642.642,0,0,0-.036-.181l-.453-1.774c-.036-.127-.054-.272-.09-.416s-.072-.272-.091-.362-.054-.181-.072-.272a1.892,1.892,0,0,0-.054-.217,1.247,1.247,0,0,0-.054-.145c-.018-.054-.036-.091-.054-.091a.066.066,0,0,0-.054-.018c-.054,0-.109.072-.127.235s-.054.362-.091.652a3.225,3.225,0,0,1-.109.706l-.453,1.774a.268.268,0,0,0-.018.127c0,.091.072.145.217.145h1.358C428.557,23.247,428.611,23.211,428.611,23.139Z" transform="translate(-384.156 -17.383)" fill="#fff"></path>
        <path id="Tracé_591" data-name="Tracé 591" d="M492.18,21.794a1.435,1.435,0,0,1-.09.272,1.162,1.162,0,0,0-.091.362v2.045c.018.6.036,1.068.036,1.358,0,.109-.054.163-.181.163h-.67a.415.415,0,0,0-.326.109,4.175,4.175,0,0,1-1.376.833,5.924,5.924,0,0,1-1.774.235,3.661,3.661,0,0,1-3.041-1.339,6.289,6.289,0,0,1-1.068-4.036,6.123,6.123,0,0,1,1.14-4.109,3.961,3.961,0,0,1,3.113-1.285,3.6,3.6,0,0,1,2.57.833.525.525,0,0,0,.326.145h.851c.091,0,.145.054.145.181l-.054,1.122c.036.724.054,1.158.054,1.321q0,.217-.163.217l-.851-.036c-.489.036-.778.036-.887.036-.091,0-.145-.072-.145-.217,0-.923-.489-1.376-1.466-1.376a1.561,1.561,0,0,0-1.376.67,4.674,4.674,0,0,0-.453,2.462,8.531,8.531,0,0,0,.127,1.665,2.5,2.5,0,0,0,.38.977,1.129,1.129,0,0,0,.543.416,2.1,2.1,0,0,0,.724.109,1.7,1.7,0,0,0,1.014-.253.817.817,0,0,0,.326-.688v-.217c0-.181-.072-.272-.235-.272h-.543a.889.889,0,0,0-.2.018.582.582,0,0,1-.145.018c-.072,0-.127-.036-.127-.091l.054-.887c-.018-.4-.036-.67-.036-.778s.072-.145.235-.145h3.367C492.089,21.667,492.18,21.7,492.18,21.794Z" transform="translate(-433.787 -16.4)" fill="#fff"></path>
        <path id="Tracé_592" data-name="Tracé 592" d="M552.9,27.5a.261.261,0,0,1-.036.163.234.234,0,0,1-.145.036l-.905-.054c-.6.072-.941.109-1.014.109-.109,0-.145-.054-.145-.163a3.427,3.427,0,0,0-.091-.833,1.533,1.533,0,0,0-.38-.652l-2.769-3.548a2.686,2.686,0,0,1-.308-.507c-.091-.2-.163-.344-.2-.453-.054-.109-.072-.181-.091-.181-.054,0-.072.181-.072.543v4.018c0,.29,0,.543.018.778s.036.434.036.561a1.69,1.69,0,0,1,.018.235c0,.091-.036.145-.127.145l-1.231-.054c-.543.036-.851.054-.887.054-.145,0-.235-.091-.235-.272V18.3c0-.072,0-.235-.018-.453s-.018-.362-.018-.416c0-.145.054-.235.163-.235l.923.036c.652-.036.977-.036,1.014-.036a.221.221,0,0,1,.163.072.749.749,0,0,1,.145.217c.054.091.091.163.109.2l2.733,3.548a5.724,5.724,0,0,1,.38.6c.127.235.217.4.29.543s.127.2.145.2c.054,0,.072-.036.091-.127a5.349,5.349,0,0,0,.018-.688V17.526c0-.2.054-.308.181-.308l1.1.054c.579-.036.887-.054.941-.054.127,0,.2.109.2.326V27.5Z" transform="translate(-483.5 -17.055)" fill="#fff"></path>
        <path id="Tracé_593" data-name="Tracé 593" d="M615.42,27.636c0,.127-.073.181-.2.181-.09,0-.434,0-1.05-.018s-1.05-.018-1.3-.018h-4.652a1.485,1.485,0,0,1-.344-.018c-.054-.018-.072-.036-.072-.109a2.108,2.108,0,0,1,.054-.29,2.287,2.287,0,0,0,.054-.507V18.024a.8.8,0,0,1,.163-.561.729.729,0,0,1,.525-.163h5.937c.127,0,.181.054.181.163l-.054.959c.036.6.036.941.036,1.032a.233.233,0,0,1-.036.145c-.018.018-.072.018-.145.018a5.173,5.173,0,0,1-.579-.054,5.48,5.48,0,0,0-.742-.036h-2.263c-.271,0-.4.036-.4.127a.51.51,0,0,0,.018.145.5.5,0,0,1,.018.163v1.05a.327.327,0,0,0,.072.253.444.444,0,0,0,.271.072h2.353c.163,0,.235.072.235.235l-.054.869c.036.489.054.778.054.887,0,.127-.072.2-.235.2h-2.3a.466.466,0,0,0-.326.091.479.479,0,0,0-.072.326V25.1q0,.3.109.38a.878.878,0,0,0,.471.091H613.1c.072,0,.127,0,.145-.018a.213.213,0,0,0,.091-.091.484.484,0,0,0,.036-.2l.036-.416c.018-.145.054-.235.145-.235l.851.054c.507-.036.778-.054.851-.054.109,0,.145.072.145.217l-.036,1.285Q615.42,27.391,615.42,27.636Z" transform="translate(-535.505 -17.137)" fill="#fff"></path>
      </g>
    </g>
    <g id="Groupe_1027" data-name="Groupe 1027" transform="translate(41.573 17.308)">
      <path id="Tracé_594" data-name="Tracé 594" d="M245.241,100.731a3.381,3.381,0,0,1-.869,2.5,3.159,3.159,0,0,1-2.3.851,1.116,1.116,0,0,1-.724-.308c-.235-.2-.4-.308-.543-.308-.109,0-.163.072-.163.2v2.407c0,.145.018.253.018.344.018.091.018.163.036.217.018.072.018.109.036.127,0,.018.018.054.018.072v.054c0,.091-.054.127-.181.127l-1.05-.054q-1.032.054-1.14.054c-.127,0-.181-.09-.181-.253V97.853c0-.145.054-.235.145-.253a19.04,19.04,0,0,1,2.987-.2,4.68,4.68,0,0,1,2.806.8A2.889,2.889,0,0,1,245.241,100.731Zm-2.48-.018a1.558,1.558,0,0,0-.326-1.086,1.341,1.341,0,0,0-1.032-.344,3.81,3.81,0,0,0-.579.036c-.109.018-.163.109-.163.253v1.81a2.341,2.341,0,0,0,.036.453.481.481,0,0,0,.217.272.982.982,0,0,0,.579.127,1.263,1.263,0,0,0,.977-.344A1.963,1.963,0,0,0,242.761,100.712Z" transform="translate(-238.2 -97.364)" fill="#fff"></path>
      <path id="Tracé_595" data-name="Tracé 595" d="M292.6,107.194c0,.109-.072.163-.2.163-.054,0-.308-.018-.778-.054l-.706-.054c-.054,0-.145.018-.308.036a1.578,1.578,0,0,1-.362.036H286.08c-.253,0-.38-.054-.38-.145a2.106,2.106,0,0,1,.054-.29,2.245,2.245,0,0,0,.054-.489V97.963a.109.109,0,0,1,.054-.109.221.221,0,0,1,.163-.054l.887.054c.76-.036,1.14-.054,1.177-.054.127,0,.181.072.181.235,0,.036,0,.145-.018.362s-.018.4-.018.561V104.9c0,.181.036.308.09.344a.768.768,0,0,0,.434.072h1.3a.655.655,0,0,0,.326-.054c.054-.036.072-.109.09-.217l.072-.8c0-.145.072-.2.181-.2l.833.036c.471-.036.724-.036.778-.036a.261.261,0,0,1,.163.036c.036.018.036.072.036.163l-.036,1.213C292.578,106.47,292.6,107.068,292.6,107.194Z" transform="translate(-277.102 -97.691)" fill="#fff"></path>
      <path id="Tracé_596" data-name="Tracé 596" d="M337.27,107.14c0,.127-.054.2-.181.2h-1.231c-.471.054-.778.072-.9.072a.234.234,0,0,1-.145-.036.261.261,0,0,1-.036-.163,1.887,1.887,0,0,0-.109-.561l-.362-1.412c0-.018-.018-.072-.036-.145-.018-.091-.036-.145-.054-.217a.371.371,0,0,0-.09-.163.221.221,0,0,0-.163-.072,1.513,1.513,0,0,0-.326.109,1.245,1.245,0,0,1-.38.109h-1.267a.741.741,0,0,0-.344.054.438.438,0,0,0-.163.29l-.344,1.358a3.539,3.539,0,0,0-.109.543.341.341,0,0,1-.036.145.127.127,0,0,1-.072.091.262.262,0,0,1-.127.036l-.941-.072h-1.068c-.127,0-.181-.054-.181-.181a3.166,3.166,0,0,1,.145-.76l2.208-7.639c.036-.109.054-.235.091-.362a1.152,1.152,0,0,0,.054-.272.37.37,0,0,1,.091-.163.308.308,0,0,1,.181-.109,1.867,1.867,0,0,1,.344-.018l1.1.054q1.3-.054,1.358-.054a.772.772,0,0,1,.434.091,1.431,1.431,0,0,1,.235.525l2.226,7.711A6.032,6.032,0,0,1,337.27,107.14Zm-3.6-4.254a.527.527,0,0,0-.036-.163l-.416-1.611c-.036-.127-.054-.253-.091-.38a1.927,1.927,0,0,0-.091-.326c-.018-.09-.036-.163-.054-.253a1.474,1.474,0,0,0-.054-.2c-.018-.054-.036-.091-.054-.145a.194.194,0,0,0-.054-.09.067.067,0,0,0-.054-.018c-.054,0-.09.072-.127.2a3.832,3.832,0,0,0-.072.6,2.683,2.683,0,0,1-.109.634l-.416,1.611a.23.23,0,0,0-.018.109c0,.09.072.127.2.127h1.231C333.614,102.995,333.668,102.959,333.668,102.886Z" transform="translate(-312.237 -97.691)" fill="#fff"></path>
      <path id="Tracé_597" data-name="Tracé 597" d="M386.634,107.194c0,.09-.036.145-.091.145l-1.122-.072c-.688.091-1.086.145-1.213.145a.106.106,0,0,1-.091-.036c-.018-.018-.018-.072-.018-.163V98.361a1.786,1.786,0,0,1,.036-.416.167.167,0,0,1,.181-.109l1.068.036c.579-.054.923-.072,1-.072.127,0,.181.072.181.2a2.893,2.893,0,0,1-.018.308c-.018.181-.018.362-.018.525v6.951c0,.344.018.67.036.977Z" transform="translate(-357.691 -97.691)" fill="#fff"></path>
      <path id="Tracé_598" data-name="Tracé 598" d="M414.658,104.079a2.848,2.848,0,0,1-.959,2.245,3.754,3.754,0,0,1-2.57.833,3.581,3.581,0,0,1-2.769-.977.287.287,0,0,0-.217-.09h-.525a.389.389,0,0,1-.181-.036c-.036-.018-.036-.072-.036-.163l.072-.887c-.018-.615-.018-1.014-.018-1.195,0-.127.072-.2.217-.2l.706.054c.471-.036.742-.054.778-.054a.181.181,0,0,1,.2.2,1.434,1.434,0,0,0,.362,1.122,1.892,1.892,0,0,0,1.195.308,1.792,1.792,0,0,0,1.014-.217.845.845,0,0,0,.29-.724.675.675,0,0,0-.344-.579,2.461,2.461,0,0,0-.851-.362c-.344-.091-.706-.181-1.1-.326a8.8,8.8,0,0,1-1.1-.471,2.1,2.1,0,0,1-.851-.8,2.513,2.513,0,0,1-.344-1.321,2.737,2.737,0,0,1,.941-2.244,4.039,4.039,0,0,1,2.643-.8,5.525,5.525,0,0,1,2.824.652c.163.109.253.217.253.326a1.047,1.047,0,0,1-.091.308,4,4,0,0,1-.163.38l-.09.163c-.072.453-.109.742-.145.869s-.09.181-.163.181a.205.205,0,0,1-.145-.054,3.4,3.4,0,0,0-1.1-.634,3.863,3.863,0,0,0-1.3-.253c-.688,0-1.032.272-1.032.833a.5.5,0,0,0,.253.416,2.192,2.192,0,0,0,.652.29c.272.072.561.163.887.253a6.994,6.994,0,0,1,.977.344,4.774,4.774,0,0,1,.887.525,2.1,2.1,0,0,1,.652.851A2.264,2.264,0,0,1,414.658,104.079Z" transform="translate(-376.773 -97.364)" fill="#fff"></path>
      <path id="Tracé_599" data-name="Tracé 599" d="M461.37,107.14c0,.127-.054.2-.181.2h-1.231c-.471.054-.778.072-.905.072a.234.234,0,0,1-.145-.036c-.036-.018-.036-.072-.036-.163a1.886,1.886,0,0,0-.109-.561l-.362-1.412c0-.018-.018-.072-.036-.145-.018-.091-.036-.145-.054-.217a.37.37,0,0,0-.09-.163.221.221,0,0,0-.163-.072,1.513,1.513,0,0,0-.326.109,1.245,1.245,0,0,1-.38.109h-1.267a.741.741,0,0,0-.344.054.438.438,0,0,0-.163.29l-.344,1.358a3.534,3.534,0,0,0-.109.543.34.34,0,0,1-.036.145.127.127,0,0,1-.072.091.262.262,0,0,1-.127.036l-.941-.072h-1.068c-.127,0-.181-.054-.181-.181a3.165,3.165,0,0,1,.145-.76l2.208-7.639c.036-.109.054-.235.091-.362a1.151,1.151,0,0,0,.054-.272.37.37,0,0,1,.091-.163.308.308,0,0,1,.181-.109,1.867,1.867,0,0,1,.344-.018l1.1.054q1.3-.054,1.358-.054a.772.772,0,0,1,.434.091,1.432,1.432,0,0,1,.235.525l2.226,7.711A6.036,6.036,0,0,1,461.37,107.14Zm-3.6-4.254a.528.528,0,0,0-.036-.163l-.416-1.611c-.036-.127-.054-.253-.091-.38a1.925,1.925,0,0,0-.09-.326c-.018-.09-.036-.163-.054-.253a1.469,1.469,0,0,0-.054-.2c-.018-.054-.036-.091-.054-.145a.194.194,0,0,0-.054-.09.067.067,0,0,0-.054-.018c-.054,0-.091.072-.127.2a3.824,3.824,0,0,0-.072.6,2.686,2.686,0,0,1-.109.634l-.416,1.611a.23.23,0,0,0-.018.109c0,.09.072.127.2.127h1.231C457.714,102.995,457.768,102.959,457.768,102.886Z" transform="translate(-413.874 -97.691)" fill="#fff"></path>
      <path id="Tracé_600" data-name="Tracé 600" d="M515.856,107.24c0,.09-.018.127-.036.145a.234.234,0,0,1-.145.036l-.833-.054c-.543.072-.851.091-.923.091a.133.133,0,0,1-.145-.145,2.665,2.665,0,0,0-.091-.742,1.726,1.726,0,0,0-.344-.6l-2.516-3.222a1.583,1.583,0,0,1-.272-.453,3.219,3.219,0,0,1-.181-.416c-.036-.109-.072-.163-.09-.163-.054,0-.072.163-.072.489v3.656c0,.253,0,.489.018.724.018.217.018.4.036.507a1.518,1.518,0,0,0,.018.217c0,.09-.036.127-.109.127l-1.122-.036c-.489.036-.76.036-.815.036-.145,0-.2-.091-.2-.253V98.9c0-.072,0-.217-.018-.416S508,98.153,508,98.1c0-.145.054-.2.145-.2l.833.036c.579-.036.887-.036.923-.036a.205.205,0,0,1,.145.054.629.629,0,0,1,.127.2.523.523,0,0,0,.109.181l2.5,3.222a3.974,3.974,0,0,1,.344.543q.163.3.271.489c.072.127.109.181.145.181.054,0,.072-.036.091-.109a4.663,4.663,0,0,0,.018-.634V98.19q0-.271.163-.272l1,.054c.525-.036.815-.054.851-.054.127,0,.181.109.181.308v8.507C515.838,107,515.856,107.186,515.856,107.24Z" transform="translate(-459.164 -97.773)" fill="#fff"></path>
      <path id="Tracé_601" data-name="Tracé 601" d="M568.076,105.762c0,.109-.054.145-.163.145h-.652a.326.326,0,0,0-.272.127,3.467,3.467,0,0,1-2.643.941,3.336,3.336,0,0,1-2.769-1.213,5.739,5.739,0,0,1-.977-3.638c0-3.276,1.285-4.923,3.855-4.923a2.979,2.979,0,0,1,2.245.76.385.385,0,0,0,.29.127h.778c.091,0,.127.054.127.163l-.036.887c.018.778.036,1.213.036,1.339s-.054.2-.145.2l-.76-.036c-.452.036-.724.036-.778.036-.109,0-.145-.054-.145-.145a1.139,1.139,0,0,0-1.3-1.285,1.3,1.3,0,0,0-1.177.6,4.245,4.245,0,0,0-.4,2.208,4.541,4.541,0,0,0,.4,2.317,1.342,1.342,0,0,0,1.249.615,1.4,1.4,0,0,0,1.032-.362,1.424,1.424,0,0,0,.344-1.032.133.133,0,0,1,.145-.145l.833.054c.471-.036.76-.054.833-.054s.109.054.109.181l-.036,1.068C568.057,105.255,568.076,105.617,568.076,105.762Z" transform="translate(-502.243 -97.2)" fill="#fff"></path>
      <path id="Tracé_602" data-name="Tracé 602" d="M618.615,107.376c0,.109-.054.163-.181.163-.091,0-.4,0-.959-.018s-.959-.018-1.195-.018h-4.217a1.131,1.131,0,0,1-.308-.018.084.084,0,0,1-.054-.09,1.58,1.58,0,0,1,.054-.253,1.821,1.821,0,0,0,.054-.453V98.652a.769.769,0,0,1,.145-.507.715.715,0,0,1,.489-.145h5.394c.109,0,.163.054.163.145l-.054.869c.036.543.036.869.036.941a.173.173,0,0,1-.036.127c-.018.018-.072.018-.145.018-.109,0-.271-.018-.525-.036a4.5,4.5,0,0,0-.67-.036h-2.063c-.235,0-.362.036-.362.109a.353.353,0,0,0,.018.127.451.451,0,0,1,.018.145v.941a.411.411,0,0,0,.054.235.373.373,0,0,0,.235.054h2.136a.192.192,0,0,1,.217.217l-.036.8c.036.434.036.706.036.8,0,.127-.072.181-.2.181h-2.1a.393.393,0,0,0-.29.09.453.453,0,0,0-.072.308v1.05c0,.181.036.308.09.344a.768.768,0,0,0,.434.072H616.5a.311.311,0,0,0,.145-.018c.036,0,.054-.036.073-.072a.455.455,0,0,0,.036-.181l.036-.38c0-.145.054-.2.145-.2l.778.036c.453-.036.724-.036.778-.036.091,0,.145.072.145.2l-.036,1.177C618.6,106.761,618.615,107.213,618.615,107.376Z" transform="translate(-544.094 -97.855)" fill="#fff"></path>
    </g>
    <g id="Groupe_1028" data-name="Groupe 1028" transform="translate(41.736 34.44)">
      <path id="Tracé_603" data-name="Tracé 603" d="M242.485,197.519a1.447,1.447,0,0,1-.471,1.14,1.76,1.76,0,0,1-1.213.416,1.5,1.5,0,0,1-1.267-.543.141.141,0,0,0-.127-.054h-.217c-.036,0-.072,0-.072-.018-.018-.018-.018-.036-.018-.072l.018-.507c-.018-.271-.018-.434-.018-.471,0-.054.018-.091.072-.091l.235.018a1.868,1.868,0,0,1,.253-.018c.054,0,.072.036.072.091a.962.962,0,0,0,.235.742,1.1,1.1,0,0,0,.742.235c.634,0,.941-.271.941-.815a.641.641,0,0,0-.181-.471,1.083,1.083,0,0,0-.452-.29c-.181-.054-.38-.145-.6-.217q-.326-.136-.6-.271a1.112,1.112,0,0,1-.453-.416,1.182,1.182,0,0,1-.181-.688,1.421,1.421,0,0,1,.453-1.122,1.674,1.674,0,0,1,1.195-.4,2.561,2.561,0,0,1,1.394.326.137.137,0,0,1,.072.127.269.269,0,0,1-.018.109c-.018.054-.036.09-.054.145l-.018.054c-.036.181-.054.29-.054.308,0,.054-.018.072-.054.072a.137.137,0,0,1-.072-.036,1.345,1.345,0,0,0-.525-.308,2.108,2.108,0,0,0-.688-.109c-.561,0-.833.253-.833.76a.5.5,0,0,0,.145.344,1.046,1.046,0,0,0,.362.235c.145.054.308.127.489.181a4.5,4.5,0,0,1,.525.2,2.177,2.177,0,0,1,.489.29,1.293,1.293,0,0,1,.362.453A1.839,1.839,0,0,1,242.485,197.519Z" transform="translate(-239.1 -193.609)" fill="#fff"></path>
      <path id="Tracé_604" data-name="Tracé 604" d="M266.076,195.647a1.671,1.671,0,0,1-.453,1.267,1.643,1.643,0,0,1-1.195.434.864.864,0,0,1-.453-.163.981.981,0,0,0-.326-.163c-.054,0-.09.036-.09.109v1.358a2.43,2.43,0,0,0,.018.38c0,.109.018.181.018.217a.783.783,0,0,0,.018.091c0,.018.018.036.018.054,0,.036-.018.054-.072.054l-.344-.018a3.4,3.4,0,0,1-.344.018c-.054,0-.072-.036-.072-.09v-4.941c0-.072.018-.127.072-.145a6.635,6.635,0,0,1,1.339-.109,2.149,2.149,0,0,1,1.376.416A1.476,1.476,0,0,1,266.076,195.647Zm-.815-.018a.912.912,0,0,0-1.05-1.014,3.913,3.913,0,0,0-.561.036.126.126,0,0,0-.109.145v1.177a.637.637,0,0,0,.181.525.843.843,0,0,0,.6.163C264.954,196.679,265.262,196.335,265.262,195.629Z" transform="translate(-258.51 -193.855)" fill="#fff"></path>
      <path id="Tracé_605" data-name="Tracé 605" d="M288.976,199.241c0,.054-.018.09-.072.09a2.465,2.465,0,0,1-.29-.018,2.1,2.1,0,0,0-.235-.018.477.477,0,0,0-.127.018.624.624,0,0,1-.163.018h-2.226c-.109,0-.163-.018-.163-.072a.68.68,0,0,1,.018-.145,1.2,1.2,0,0,0,.018-.253v-4.706a.063.063,0,0,1,.018-.036c.018-.018.036-.018.072-.018l.272.036c.181-.018.308-.036.344-.036.054,0,.072.036.072.109a1.237,1.237,0,0,1-.018.217c0,.109-.018.181-.018.253v3.747c0,.072.018.127.054.145a.485.485,0,0,0,.2.036h1.285c.072,0,.127,0,.145-.018a.3.3,0,0,0,.054-.109l.036-.434c0-.072.036-.109.072-.109l.272.018a2.049,2.049,0,0,1,.253-.018c.036,0,.054,0,.072.018s.018.036.018.072l-.018.561A4.521,4.521,0,0,1,288.976,199.241Z" transform="translate(-277.265 -193.937)" fill="#fff"></path>
      <path id="Tracé_606" data-name="Tracé 606" d="M320.467,197.637a1.5,1.5,0,0,1-.434,1.122,1.636,1.636,0,0,1-1.177.416,1.658,1.658,0,0,1-1.339-.507c-.036-.036-.072-.054-.091-.072a.625.625,0,0,0-.217-.018c-.054,0-.072,0-.091-.018s-.018-.036-.018-.091v-4.435c0-.109.018-.163.036-.163h.109c.018,0,.181-.018.525-.036a7.324,7.324,0,0,1,.815-.036q1.629,0,1.629,1.358a1.124,1.124,0,0,1-.471.977c-.018,0-.036.018-.072.036l-.109.054c-.036.018-.036.036-.036.054,0,.036.072.072.217.127a.955.955,0,0,1,.543.453A1.7,1.7,0,0,1,320.467,197.637Zm-1.05-2.426c0-.507-.29-.76-.887-.76a5.884,5.884,0,0,0-.6.036.146.146,0,0,0-.109.163v1.267c0,.091.036.145.127.145h.615a.915.915,0,0,0,.634-.2A.885.885,0,0,0,319.417,195.212Zm.235,2.371a.806.806,0,0,0-.272-.706,1.4,1.4,0,0,0-.8-.2h-.543a.2.2,0,0,1-.09-.018.137.137,0,0,0-.072-.018c-.018,0-.036.054-.036.181v.615a1.219,1.219,0,0,0,.217.815,1.125,1.125,0,0,0,1.376.036A.969.969,0,0,0,319.652,197.583Z" transform="translate(-302.981 -193.691)" fill="#fff"></path>
      <path id="Tracé_607" data-name="Tracé 607" d="M341.762,202.1l-.09.29-.054.271c-.018.054-.036.091-.072.091a1.158,1.158,0,0,1-.2-.091.614.614,0,0,0-.344-.09c-.507,0-.742.4-.742,1.195v1.9c0,.054-.018.09-.072.09l-.272-.018a2.463,2.463,0,0,1-.29.018c-.054,0-.072-.036-.072-.09v-1.919a1.97,1.97,0,0,1,.054-.507,1.683,1.683,0,0,1,.109-.326.49.49,0,0,0,.054-.145c0-.054-.072-.163-.235-.308s-.235-.235-.235-.272a.137.137,0,0,1,.036-.072l.235-.181a.137.137,0,0,1,.072-.018c.036,0,.109.054.253.163a.624.624,0,0,0,.308.163.372.372,0,0,0,.163-.091,1.579,1.579,0,0,1,.308-.163,1.211,1.211,0,0,1,.471-.091.977.977,0,0,1,.489.109C341.744,202.009,341.762,202.045,341.762,202.1Z" transform="translate(-321.163 -200.325)" fill="#fff"></path>
      <path id="Tracé_608" data-name="Tracé 608" d="M358.459,203.076a2.74,2.74,0,0,1-.036.416.273.273,0,0,1-.072.145.281.281,0,0,1-.145.036h-1.846c-.145,0-.217.054-.217.145a1.185,1.185,0,0,0,.29.851,1.106,1.106,0,0,0,.815.308,1.365,1.365,0,0,0,1-.38c.036-.018.054-.036.091-.036a.048.048,0,0,1,.054.054l-.018.272v.272a.137.137,0,0,1-.072.127,1.972,1.972,0,0,1-2.425-.2,2.126,2.126,0,0,1-.471-1.43,2.245,2.245,0,0,1,.434-1.394,1.423,1.423,0,0,1,1.213-.561,1.492,1.492,0,0,1,1.032.362A1.351,1.351,0,0,1,358.459,203.076Zm-.706-.145a.613.613,0,0,0-.2-.489.8.8,0,0,0-.525-.181.752.752,0,0,0-.6.235,1.133,1.133,0,0,0-.272.615c.018.09.036.127.091.127a.712.712,0,0,0,.109-.036.711.711,0,0,1,.109-.036h1.1c.072,0,.127-.018.145-.054C357.753,203.094,357.753,203.021,357.753,202.931Z" transform="translate(-334.349 -200.161)" fill="#fff"></path>
      <path id="Tracé_609" data-name="Tracé 609" d="M375.979,200.266v-1.792a.173.173,0,0,0-.036-.127.153.153,0,0,0-.109-.036h-.326c-.072,0-.109-.036-.109-.09l.018-.181v-.163c0-.054.036-.09.109-.09h.145a.376.376,0,0,0,.272-.072.368.368,0,0,0,.109-.253l.127-.634c.018-.054.018-.09.054-.109.018-.018.054-.018.109-.018h.308a.066.066,0,0,1,.072.072c0,.018,0,.145-.018.38,0,.235-.018.38-.018.434,0,.127.054.181.181.181h1c.018,0,.018.018.036.018.018.018.018.036.018.072a2,2,0,0,1-.036.326.126.126,0,0,1-.145.109H376.9a.52.52,0,0,0-.217.036.109.109,0,0,0-.054.109.319.319,0,0,0,.018.109.319.319,0,0,1,.018.109v1.466a.77.77,0,0,0,.163.561.664.664,0,0,0,.489.163.354.354,0,0,0,.127-.018.219.219,0,0,0,.09-.018c.036,0,.036.018.036.054l-.054.29v.181a.115.115,0,0,1-.09.109,1.419,1.419,0,0,1-.253.036,1.162,1.162,0,0,1-.887-.326A1.115,1.115,0,0,1,375.979,200.266Z" transform="translate(-350.729 -196.066)" fill="#fff"></path>
      <path id="Tracé_610" data-name="Tracé 610" d="M394.86,203.166c0,.163,0,.434-.018.76-.018.344-.018.579-.018.706v.652c0,.072-.018.09-.072.09h-.362a3.879,3.879,0,0,0-.416.127,2.308,2.308,0,0,1-.76.127c-.8,0-1.213-.326-1.213-1.014a.97.97,0,0,1,.29-.76,1.111,1.111,0,0,1,.8-.253,1.682,1.682,0,0,1,.489.072c.2.036.326.072.38.072.127,0,.2-.109.2-.308v-.217c0-.561-.29-.833-.869-.833a2.284,2.284,0,0,0-.543.054,1.057,1.057,0,0,0-.344.127.2.2,0,0,1-.127.054.048.048,0,0,1-.054-.054l.018-.272a1.787,1.787,0,0,1-.018-.271.084.084,0,0,1,.054-.091,2.275,2.275,0,0,1,1.068-.235C394.371,201.718,394.86,202.189,394.86,203.166Zm-.688,1.122c0-.072,0-.127-.018-.145a.153.153,0,0,0-.109-.036h-.67a.822.822,0,0,0-.471.109c-.109.072-.145.2-.145.4,0,.326.217.471.652.471a.835.835,0,0,0,.615-.181A1.02,1.02,0,0,0,394.172,204.288Z" transform="translate(-364.324 -200.161)" fill="#fff"></path>
      <path id="Tracé_611" data-name="Tracé 611" d="M414.868,206.055a1.036,1.036,0,0,1-.453.887,1.855,1.855,0,0,1-1.177.344c-1.014,0-1.539-.344-1.539-1.014a.748.748,0,0,1,.072-.38c.036-.036.054-.072.072-.072l.217.054a2.289,2.289,0,0,1,.29-.018c.036,0,.054.018.054.036a.388.388,0,0,1-.018.109.5.5,0,0,0-.018.163c0,.362.308.525.923.525a1.241,1.241,0,0,0,.652-.145.485.485,0,0,0,.217-.416c0-.163-.036-.272-.127-.326a1.071,1.071,0,0,0-.434-.109l-.561-.036a1.585,1.585,0,0,1-.561-.109.39.39,0,0,1-.2-.29,2.125,2.125,0,0,0,.217-.778c0-.054-.054-.109-.145-.163a1.136,1.136,0,0,1-.507-1.05,1.242,1.242,0,0,1,.344-.923,1.317,1.317,0,0,1,.977-.344c.127,0,.344,0,.67.018s.525.018.615.018q.109,0,.109.054c0,.018-.018.054-.072.109a.289.289,0,0,0-.072.217,1.441,1.441,0,0,0,.072.38,2.556,2.556,0,0,1,.072.453,1.185,1.185,0,0,1-.362.905,1.317,1.317,0,0,1-.977.344h-.109a.136.136,0,0,0-.127.091,1.544,1.544,0,0,0-.072.272c0,.072.072.127.217.145l.652.036C414.524,205.1,414.868,205.421,414.868,206.055Zm-1-2.788c0-.507-.217-.76-.67-.76a.572.572,0,0,0-.489.217.9.9,0,0,0-.163.561.792.792,0,0,0,.163.525.6.6,0,0,0,.471.2.613.613,0,0,0,.489-.2A.723.723,0,0,0,413.872,203.267Z" transform="translate(-380.458 -200.407)" fill="#fff"></path>
      <path id="Tracé_612" data-name="Tracé 612" d="M435.149,205.565c0,.054-.018.091-.072.091l-.29-.018a2.071,2.071,0,0,1-.271.018c-.036,0-.054,0-.072-.018s-.018-.036-.018-.072v-1.846a2.089,2.089,0,0,0-.163-.941.647.647,0,0,0-.652-.308.7.7,0,0,0-.67.326,1.857,1.857,0,0,0-.181.923v1.846c0,.036,0,.072-.018.072-.018.018-.036.018-.072.018l-.29-.018a2.072,2.072,0,0,1-.272.018c-.036,0-.054-.018-.054-.072v-1.937a2.229,2.229,0,0,1,.054-.525,1.44,1.44,0,0,1,.109-.308.361.361,0,0,0,.054-.145c0-.054-.072-.163-.235-.308s-.235-.235-.235-.272a.137.137,0,0,1,.036-.072l.235-.181a.137.137,0,0,1,.072-.018.643.643,0,0,1,.253.163.561.561,0,0,0,.308.163.526.526,0,0,0,.181-.091,2.345,2.345,0,0,1,.362-.163,1.514,1.514,0,0,1,.525-.09,1.139,1.139,0,0,1,1.014.489,2.381,2.381,0,0,1,.326,1.321v1.756A.506.506,0,0,1,435.149,205.565Z" transform="translate(-396.92 -200.243)" fill="#fff"></path>
      <path id="Tracé_613" data-name="Tracé 613" d="M457.959,203.076a2.739,2.739,0,0,1-.036.416.273.273,0,0,1-.072.145.28.28,0,0,1-.145.036h-1.846c-.145,0-.217.054-.217.145a1.185,1.185,0,0,0,.29.851,1.106,1.106,0,0,0,.815.308,1.366,1.366,0,0,0,1-.38c.036-.018.054-.036.09-.036a.048.048,0,0,1,.054.054l-.018.272v.272a.137.137,0,0,1-.072.127,1.972,1.972,0,0,1-2.426-.2,2.126,2.126,0,0,1-.471-1.43,2.244,2.244,0,0,1,.434-1.394,1.423,1.423,0,0,1,1.213-.561,1.492,1.492,0,0,1,1.032.362A1.351,1.351,0,0,1,457.959,203.076Zm-.706-.145a.613.613,0,0,0-.2-.489.8.8,0,0,0-.525-.181.752.752,0,0,0-.6.235,1.133,1.133,0,0,0-.272.615c.018.09.036.127.09.127a.712.712,0,0,0,.109-.036.713.713,0,0,1,.109-.036h1.1c.072,0,.127-.018.145-.054A.336.336,0,0,0,457.253,202.931Z" transform="translate(-415.839 -200.161)" fill="#fff"></path>
      <path id="Tracé_614" data-name="Tracé 614" d="M489.476,195.647a1.671,1.671,0,0,1-.453,1.267,1.643,1.643,0,0,1-1.195.434.864.864,0,0,1-.453-.163.981.981,0,0,0-.326-.163c-.054,0-.091.036-.091.109v1.358a2.43,2.43,0,0,0,.018.38c0,.109.018.181.018.217a.784.784,0,0,0,.018.091c0,.018.018.036.018.054,0,.036-.018.054-.072.054l-.344-.018a3.4,3.4,0,0,1-.344.018c-.054,0-.072-.036-.072-.09v-4.941c0-.072.018-.127.072-.145a6.635,6.635,0,0,1,1.339-.109,2.149,2.149,0,0,1,1.376.416A1.426,1.426,0,0,1,489.476,195.647Zm-.8-.018a.912.912,0,0,0-1.05-1.014,3.914,3.914,0,0,0-.561.036.126.126,0,0,0-.109.145v1.177a.637.637,0,0,0,.181.525.843.843,0,0,0,.6.163C488.354,196.679,488.68,196.335,488.68,195.629Z" transform="translate(-441.473 -193.855)" fill="#fff"></path>
      <path id="Tracé_615" data-name="Tracé 615" d="M510.784,198.449a.092.092,0,0,1-.072.09,1.006,1.006,0,0,1-.543.127c-.579,0-.869-.326-.869-1v-4.362a.135.135,0,0,1,.018-.09c0-.018.036-.018.054-.018l.308.018a2.941,2.941,0,0,1,.326-.018c.036,0,.036.018.036.054a1.2,1.2,0,0,1-.018.2,1.48,1.48,0,0,0-.018.253v3.855c0,.2.018.326.072.38.054.072.127.091.272.091a.578.578,0,0,0,.253-.054.49.49,0,0,1,.145-.054c.036,0,.036.018.036.054l-.018.253C510.766,198.341,510.784,198.413,510.784,198.449Z" transform="translate(-460.392 -193.2)" fill="#fff"></path>
      <path id="Tracé_616" data-name="Tracé 616" d="M522.16,203.166c0,.163,0,.434-.018.76-.018.344-.018.579-.018.706v.652c0,.072-.018.09-.072.09h-.362a3.885,3.885,0,0,0-.416.127,2.308,2.308,0,0,1-.76.127c-.8,0-1.213-.326-1.213-1.014a.97.97,0,0,1,.29-.76,1.111,1.111,0,0,1,.8-.253,1.682,1.682,0,0,1,.489.072c.2.036.326.072.38.072.127,0,.2-.109.2-.308v-.217c0-.561-.29-.833-.869-.833a2.284,2.284,0,0,0-.543.054.912.912,0,0,0-.344.127.472.472,0,0,1-.127.054.048.048,0,0,1-.054-.054l.018-.272a1.793,1.793,0,0,1-.018-.271.084.084,0,0,1,.054-.091,2.275,2.275,0,0,1,1.068-.235C521.671,201.718,522.16,202.189,522.16,203.166Zm-.67,1.122c0-.072,0-.127-.018-.145a.153.153,0,0,0-.109-.036h-.67a.822.822,0,0,0-.471.109c-.109.072-.145.2-.145.4,0,.326.217.471.652.471a.835.835,0,0,0,.615-.181A1.17,1.17,0,0,0,521.49,204.288Z" transform="translate(-468.582 -200.161)" fill="#fff"></path>
      <path id="Tracé_617" data-name="Tracé 617" d="M541.8,199.768a.048.048,0,0,1-.054.054l-.326-.018a2.7,2.7,0,0,1-.308.018c-.054,0-.072-.036-.072-.091v-3.077a1.482,1.482,0,0,0-.018-.253c0-.109-.018-.181-.018-.235,0-.072.036-.127.091-.127l.271.018c.181-.018.271-.018.29-.018.036,0,.054.018.054.072v3.041a2.821,2.821,0,0,0,.018.362Zm-.072-4.471c0,.072-.018.109-.072.109h-.489c-.054,0-.091-.036-.091-.127a.407.407,0,0,1,.018-.127c0-.054.018-.09.018-.127a.319.319,0,0,0-.018-.109.639.639,0,0,0-.018-.109c0-.072.036-.109.091-.109h.489c.054,0,.091.036.091.109a.318.318,0,0,1-.018.109.319.319,0,0,0-.018.109.408.408,0,0,0,.018.127Z" transform="translate(-486.354 -194.428)" fill="#fff"></path>
      <path id="Tracé_618" data-name="Tracé 618" d="M552.761,204.679a1.145,1.145,0,0,1-.362.887,1.469,1.469,0,0,1-.977.308,1.738,1.738,0,0,1-1.231-.4.264.264,0,0,1-.091-.145c0-.054.054-.127.163-.235.036-.145.054-.217.072-.217.018-.054.036-.072.072-.072.018,0,.018,0,.036.018l.054.054.036.036a1.214,1.214,0,0,0,.941.38.721.721,0,0,0,.453-.109.449.449,0,0,0,.145-.362.373.373,0,0,0-.2-.344,1.618,1.618,0,0,0-.471-.217c-.181-.054-.362-.127-.543-.181a1.162,1.162,0,0,1-.452-.326.864.864,0,0,1-.2-.579,1.069,1.069,0,0,1,.344-.869,1.335,1.335,0,0,1,.905-.308,1.827,1.827,0,0,1,1.068.271c.073.054.127.091.127.145l-.127.253c-.054.2-.09.29-.127.29a.156.156,0,0,1-.109-.054,1.118,1.118,0,0,0-.833-.326c-.38,0-.579.163-.579.471a.326.326,0,0,0,.2.271,2.3,2.3,0,0,0,.471.2c.181.054.362.127.543.2a1.14,1.14,0,0,1,.471.362A.949.949,0,0,1,552.761,204.679Z" transform="translate(-493.807 -200.407)" fill="#fff"></path>
      <path id="Tracé_619" data-name="Tracé 619" d="M571.16,203.166c0,.163,0,.434-.018.76-.018.344-.018.579-.018.706v.652c0,.072-.018.09-.072.09h-.362a3.873,3.873,0,0,0-.416.127,2.308,2.308,0,0,1-.76.127c-.8,0-1.213-.326-1.213-1.014a.97.97,0,0,1,.29-.76,1.111,1.111,0,0,1,.8-.253,1.683,1.683,0,0,1,.489.072c.2.036.326.072.38.072.127,0,.2-.109.2-.308v-.217c0-.561-.29-.833-.869-.833a2.285,2.285,0,0,0-.543.054.913.913,0,0,0-.344.127.472.472,0,0,1-.127.054.048.048,0,0,1-.054-.054l.018-.272a1.793,1.793,0,0,1-.018-.271.084.084,0,0,1,.054-.091,2.275,2.275,0,0,1,1.068-.235C570.671,201.718,571.16,202.189,571.16,203.166Zm-.67,1.122c0-.072,0-.127-.018-.145a.153.153,0,0,0-.109-.036h-.67a.822.822,0,0,0-.471.109c-.109.072-.145.2-.145.4,0,.326.217.471.652.471a.835.835,0,0,0,.615-.181A1.02,1.02,0,0,0,570.49,204.288Z" transform="translate(-508.712 -200.161)" fill="#fff"></path>
      <path id="Tracé_620" data-name="Tracé 620" d="M592.149,205.565c0,.054-.018.091-.072.091l-.29-.018a2.071,2.071,0,0,1-.272.018c-.036,0-.054,0-.072-.018s-.018-.036-.018-.072v-1.846a2.089,2.089,0,0,0-.163-.941.647.647,0,0,0-.652-.308.7.7,0,0,0-.67.326,1.857,1.857,0,0,0-.181.923v1.846c0,.036,0,.072-.018.072-.018.018-.036.018-.072.018l-.29-.018a2.07,2.07,0,0,1-.271.018c-.036,0-.054-.018-.054-.072v-1.937a2.229,2.229,0,0,1,.054-.525,1.448,1.448,0,0,1,.109-.308.361.361,0,0,0,.054-.145c0-.054-.072-.163-.235-.308s-.235-.235-.235-.272a.137.137,0,0,1,.036-.072l.235-.181a.137.137,0,0,1,.072-.018.642.642,0,0,1,.253.163.625.625,0,0,0,.308.163.526.526,0,0,0,.181-.091,2.344,2.344,0,0,1,.362-.163,1.514,1.514,0,0,1,.525-.09,1.139,1.139,0,0,1,1.014.489,2.38,2.38,0,0,1,.326,1.321v1.756A.506.506,0,0,1,592.149,205.565Z" transform="translate(-525.502 -200.243)" fill="#fff"></path>
      <path id="Tracé_621" data-name="Tracé 621" d="M614.9,204.614l-.018.326v.235a.165.165,0,0,1-.072.145,1.8,1.8,0,0,1-1.086.308,1.544,1.544,0,0,1-1.285-.525,2.143,2.143,0,0,1-.434-1.43,2.118,2.118,0,0,1,.453-1.43,1.482,1.482,0,0,1,1.213-.543,1.384,1.384,0,0,1,1.249.561.133.133,0,0,1,.036.109c0,.018-.018.036-.036.054l-.2.2a2.01,2.01,0,0,1-.127.235q-.027.054-.054.054c-.036,0-.054-.018-.072-.054a.77.77,0,0,0-.76-.543c-.633,0-.941.434-.941,1.339a1.458,1.458,0,0,0,.271.941.972.972,0,0,0,.833.344,1.3,1.3,0,0,0,.941-.362.112.112,0,0,1,.072-.036C614.9,204.56,614.9,204.578,614.9,204.614Z" transform="translate(-544.502 -200.161)" fill="#fff"></path>
      <path id="Tracé_622" data-name="Tracé 622" d="M634.759,203.076a2.74,2.74,0,0,1-.036.416.273.273,0,0,1-.072.145.28.28,0,0,1-.145.036h-1.846c-.145,0-.217.054-.217.145a1.185,1.185,0,0,0,.29.851,1.106,1.106,0,0,0,.815.308,1.365,1.365,0,0,0,1-.38c.036-.018.054-.036.091-.036a.048.048,0,0,1,.054.054l-.018.272v.272a.137.137,0,0,1-.072.127,1.972,1.972,0,0,1-2.426-.2,2.126,2.126,0,0,1-.471-1.43,2.244,2.244,0,0,1,.434-1.394,1.423,1.423,0,0,1,1.213-.561,1.492,1.492,0,0,1,1.032.362A1.352,1.352,0,0,1,634.759,203.076Zm-.706-.145a.613.613,0,0,0-.2-.489.8.8,0,0,0-.525-.181.752.752,0,0,0-.6.235,1.133,1.133,0,0,0-.271.615c.018.09.036.127.091.127a.716.716,0,0,0,.109-.036.706.706,0,0,1,.109-.036h1.1c.072,0,.127-.018.145-.054C634.053,203.094,634.053,203.021,634.053,202.931Z" transform="translate(-560.636 -200.161)" fill="#fff"></path>
    </g>
    <path id="Tracé_623" data-name="Tracé 623" d="M98.065,67.9S105.776,89.82,84.2,99.269c0,0,13.358-4.127,15.874,1.3C100.092,100.59,120.619,91.721,98.065,67.9Z" transform="translate(-68.959 -56.274)" fill="#fff"></path>
  </g>
</svg>
